# xmcd CD database file
#
# Track frame offsets:
#	150
#	12929
#	25301
#	35987
#	45270
#	46182
#	65389
#	84868
#	92096
#	101508
#	102645
#	115318
#	132546
#	144261
#	149000
#	173830
#	191670
#	193513
#	198829
#	219726
#	228749
#	236111
#	242379
#	250455
#	256256
#	261567
#	268775
#
# Disc length: 3864 seconds
#
# Revision: 0
# Processed by: cddbd v1.5.2PL0 Copyright (c) Steve Scherf et al.
# Submitted via: CDex 1.51
#
DISCID=920f161b
DTITLE=Bruno Parmentier-Bernage Aurélie Blanz - Album de chansons
DYEAR=2003
DGENRE=Enfants
TTITLE0=V'là le bon vent
TTITLE1=Il était un petit navire
TTITLE2=A la claire fontaine
TTITLE3=Malbrough
TTITLE4=Une poule sur un mur
TTITLE5=La complaine de Mandrin
TTITLE6=Biquette
TTITLE7=La bonne aventure
TTITLE8=Nous n'irons plus au bois
TTITLE9=Quand j'étais petit
TTITLE10=Sur le pont du Nord
TTITLE11=Trois jeunes tambours
TTITLE12=Anne de Bretagne
TTITLE13=Mon père m'a donné un mari
TTITLE14=Le 31 du mois d'août
TTITLE15=L'hospitalité
TTITLE16=Une souris verte
TTITLE17=Il court, il court, le furet
TTITLE18=Brave marin
TTITLE19=Au clair de la Lune
TTITLE20=Sur le pont d'Avignon
TTITLE21=La mère Michel
TTITLE22=Cadet Rousselle
TTITLE23=Ah ! dis moi donc Bergère
TTITLE24=Ah ! vous dirai-je maman
TTITLE25=Le bon roi Dagobert
TTITLE26=Aux marches du palais
EXTD=YEAR: 2003
EXTT0=
EXTT1=
EXTT2=
EXTT3=
EXTT4=
EXTT5=
EXTT6=
EXTT7=
EXTT8=
EXTT9=
EXTT10=
EXTT11=
EXTT12=
EXTT13=
EXTT14=
EXTT15=
EXTT16=
EXTT17=
EXTT18=
EXTT19=
EXTT20=
EXTT21=
EXTT22=
EXTT23=
EXTT24=
EXTT25=
EXTT26=
PLAYORDER=
